<?xml version="1.0" encoding="utf-8"?>
<!-- Generator: Adobe Illustrator 19.2.1, SVG Export Plug-In . SVG Version: 6.00 Build 0)  -->
<svg version="1.1" id="Layer_1" xmlns="http://www.w3.org/2000/svg" xmlns:xlink="http://www.w3.org/1999/xlink" x="0px" y="0px"
	 viewBox="0 0 723.1 241.9" style="enable-background:new 0 0 723.1 241.9;" xml:space="preserve">
<style type="text/css">
	.st0{fill:#3D3D3D;}
	.st1{fill:#0D5E8C;}
	.st2{fill:#0071BC;}
	.st3{fill:#29373C;}
	.st4{fill:#F7F9F9;}
	.st5{fill:#CCD1D3;}
	.st6{opacity:0.1;fill:#0071BC;enable-background:new    ;}
	.st7{fill:#F1C40F;}
	.st8{fill:#0075A8;}
</style>
<g>
	<path class="st0" d="M318.8,100.2c0.4,0,0.7,0.1,1.1,0.2s0.7,0.4,1,0.7l6,6.3c-2.6,3.4-5.9,6-9.9,7.8c-4,1.7-8.6,2.6-14,2.6
		c-5,0-9.4-0.8-13.3-2.5s-7.2-4-10-7c-2.7-3-4.8-6.5-6.3-10.6s-2.2-8.5-2.2-13.3c0-4.9,0.8-9.3,2.4-13.4s3.8-7.6,6.7-10.5
		c2.9-3,6.3-5.3,10.3-6.9c4-1.6,8.4-2.5,13.2-2.5c2.4,0,4.8,0.2,6.9,0.6c2.2,0.4,4.2,1,6.1,1.8s3.6,1.7,5.2,2.8s3,2.2,4.2,3.5
		l-5.1,6.8c-0.3,0.4-0.7,0.8-1.2,1.1c-0.4,0.3-1.1,0.5-1.9,0.5c-0.5,0-1-0.1-1.5-0.4c-0.5-0.2-1-0.5-1.5-0.9
		c-0.5-0.3-1.1-0.7-1.8-1.1c-0.6-0.4-1.4-0.8-2.3-1.1c-0.9-0.3-1.9-0.6-3.1-0.9c-1.2-0.2-2.6-0.4-4.1-0.4c-2.5,0-4.8,0.5-6.9,1.4
		s-3.9,2.3-5.4,4c-1.5,1.8-2.7,4-3.5,6.5c-0.8,2.6-1.2,5.5-1.2,8.8s0.5,6.3,1.4,8.9s2.1,4.8,3.7,6.6c1.6,1.8,3.4,3.1,5.5,4.1
		c2.1,0.9,4.3,1.4,6.7,1.4c1.4,0,2.6-0.1,3.8-0.2c1.1-0.1,2.2-0.4,3.2-0.7c1-0.3,1.9-0.7,2.8-1.3c0.9-0.5,1.7-1.2,2.6-2
		c0.4-0.3,0.7-0.5,1.2-0.7C318,100.3,318.4,100.2,318.8,100.2z"/>
	<path class="st0" d="M405,84.5c0,4.7-0.8,9.1-2.4,13.2s-3.9,7.6-6.9,10.6s-6.5,5.3-10.7,7s-8.8,2.6-13.8,2.6
		c-5.1,0-9.7-0.9-13.9-2.6c-4.2-1.7-7.7-4-10.7-7s-5.3-6.5-6.9-10.6s-2.4-8.4-2.4-13.2c0-4.7,0.8-9.1,2.4-13.2s3.9-7.6,6.9-10.6
		s6.5-5.3,10.7-7s8.8-2.6,13.9-2.6s9.7,0.9,13.8,2.6c4.2,1.7,7.7,4.1,10.7,7c3,3,5.2,6.5,6.9,10.6C404.2,75.4,405,79.8,405,84.5z
		 M389.5,84.5c0-3.2-0.4-6.1-1.3-8.7c-0.8-2.6-2-4.8-3.6-6.6c-1.6-1.8-3.5-3.2-5.7-4.1c-2.3-1-4.8-1.4-7.7-1.4
		c-2.9,0-5.5,0.5-7.8,1.4c-2.3,1-4.2,2.3-5.8,4.1c-1.6,1.8-2.8,4-3.6,6.6c-0.8,2.6-1.3,5.5-1.3,8.7c0,3.3,0.4,6.2,1.3,8.7
		c0.8,2.6,2,4.8,3.6,6.6c1.6,1.8,3.5,3.2,5.8,4.1s4.9,1.4,7.8,1.4s5.5-0.5,7.7-1.4c2.3-0.9,4.2-2.3,5.7-4.1c1.6-1.8,2.8-4,3.6-6.6
		C389.1,90.7,389.5,87.7,389.5,84.5z"/>
	<path class="st0" d="M479.7,51.9v65.2h-7.9c-1.2,0-2.1-0.2-2.9-0.6s-1.6-1-2.3-1.9l-30.7-38.9c0.1,1.2,0.2,2.3,0.2,3.4
		s0.1,2.1,0.1,3.1v34.9h-13.3V51.9h8c0.7,0,1.2,0,1.7,0.1c0.4,0.1,0.9,0.2,1.2,0.3c0.4,0.2,0.7,0.4,1,0.7s0.7,0.7,1.1,1.2l31,39.2
		c-0.1-1.3-0.3-2.5-0.3-3.6c-0.1-1.2-0.1-2.3-0.1-3.3V51.9H479.7z"/>
	<path class="st0" d="M559.8,51.9l-26.1,65.2H520l-26.1-65.2H506c1.3,0,2.4,0.3,3.2,0.9s1.4,1.4,1.8,2.3L523.6,90
		c0.6,1.5,1.2,3.2,1.7,5c0.6,1.8,1.1,3.7,1.6,5.7c0.4-2,0.9-3.9,1.4-5.7c0.5-1.8,1.1-3.5,1.7-5l12.5-34.9c0.3-0.8,0.9-1.6,1.8-2.3
		c0.9-0.7,1.9-1,3.2-1h12.3V51.9z"/>
	<path class="st0" d="M635.5,84.5c0,4.7-0.8,9.1-2.4,13.2c-1.6,4.1-3.9,7.6-6.9,10.6s-6.5,5.3-10.7,7s-8.8,2.6-13.8,2.6
		c-5.1,0-9.7-0.9-13.9-2.6s-7.7-4-10.7-7s-5.3-6.5-6.9-10.6c-1.6-4.1-2.4-8.4-2.4-13.2c0-4.7,0.8-9.1,2.4-13.2
		c1.6-4.1,3.9-7.6,6.9-10.6s6.5-5.3,10.7-7s8.8-2.6,13.9-2.6c5.1,0,9.7,0.9,13.8,2.6c4.2,1.7,7.7,4.1,10.7,7c3,3,5.2,6.5,6.9,10.6
		C634.7,75.4,635.5,79.8,635.5,84.5z M620,84.5c0-3.2-0.4-6.1-1.3-8.7c-0.8-2.6-2-4.8-3.6-6.6c-1.6-1.8-3.5-3.2-5.7-4.1
		c-2.3-1-4.8-1.4-7.7-1.4s-5.5,0.5-7.8,1.4c-2.3,1-4.2,2.3-5.8,4.1c-1.6,1.8-2.8,4-3.6,6.6s-1.3,5.5-1.3,8.7c0,3.3,0.4,6.2,1.3,8.7
		c0.8,2.6,2,4.8,3.6,6.6c1.6,1.8,3.5,3.2,5.8,4.1s4.9,1.4,7.8,1.4c2.9,0,5.5-0.5,7.7-1.4c2.3-0.9,4.2-2.3,5.7-4.1
		c1.6-1.8,2.8-4,3.6-6.6C619.6,90.7,620,87.7,620,84.5z"/>
	<path class="st0" d="M680.5,92.3v24.8h-15.1V92.3l-23.6-40.4h13.3c1.3,0,2.3,0.3,3.1,0.9c0.8,0.6,1.4,1.4,1.9,2.3l9.2,19
		c0.8,1.5,1.5,2.9,2.1,4.2c0.6,1.3,1.2,2.6,1.7,3.8c0.4-1.3,1-2.6,1.5-3.9c0.6-1.3,1.3-2.7,2-4.1l9.1-19c0.2-0.4,0.5-0.8,0.8-1.2
		s0.6-0.7,1.1-1.1c0.4-0.3,0.9-0.6,1.4-0.8s1.1-0.3,1.7-0.3h13.4L680.5,92.3z"/>
</g>
<g>
	<g>
		<path class="st1" d="M259.7,81.8l-7.3-43.7c-2.3-14-8.3-25.5-12.7-25.5c-4.3,0-8.4,11.6-8.4,25.8v11.4c0,14.2-10.5,24.9-24.7,24.9
			h-11.4c-0.8,0-1.9,1-4.5,1v31.4c2.6,0,3.7,0.4,4.5,0.4h42.9C252.4,107.5,262.1,95.8,259.7,81.8z"/>
	</g>
	<g>
		<path class="st1" d="M6.7,81.7L14,38.1c2.3-14,8.4-25.5,12.7-25.5s8.4,11.6,8.4,25.8v11.4c0,14.2,10.5,25.3,24.7,25.3h11.4
			c0.8,0,1.9,0.5,2.9,0.6v31.4c-1,0-2.1,0.1-2.9,0.1H28.3C14.1,107.1,4.4,95.7,6.7,81.7z"/>
	</g>
	<path class="st2" d="M193.1,220.1c0,6.1-4.9,11-11,11h-100c-6.1,0-11-4.9-11-11v-165c0-6.1,4.9-11,11-11h100c6.1,0,11,4.9,11,11
		V220.1z"/>
	<g>
		<path class="st3" d="M76.2,106.8c26.2-15.9,64.7-12.8,85.3-9.6c19,3,31.6,9.9,41.6,20.7V89.6c0-34.1-7.3-61.7-70-61.7
			c-61.7,0-70,27.6-70,61.7v28.5C66.1,113.6,71.2,109.8,76.2,106.8z"/>
	</g>
	<path class="st4" d="M135.5,21.4c-1.3-0.4-3.2-0.4-4.5,0c-45.2,13-59.9,5.9-59.9,68.1V110c0-0.5,1.5-1.1,2.3-1.6l-1.1,1.6
		c16.6-12.2,41-14.9,60.7-15.4c19.7,0.5,44.2,3.2,60.7,15.4l-1.6-1.6c0.8,0.5,1.8,1,1.8,1.6V89.6C194.1,27.4,180.7,34.4,135.5,21.4z
		"/>
	<path class="st5" d="M191.3,102.3h-2.4v-1.7h2.4V102.3z M191.3,98.3h-2.4v-3.6h2.4V98.3z M191.3,92.3h-2.4v-3.6h2.4V92.3z
		 M188.9,86.4c0-1.2,0-2.4,0-3.6h2.4c0,1.2,0,2.4,0,3.6H188.9z M188.9,80.4c0-1.2-0.1-2.4-0.1-3.6l2.4-0.1c0,1.2,0.1,2.4,0.1,3.6
		L188.9,80.4z M188.7,74.5c-0.1-1.2-0.1-2.4-0.2-3.5l2.4-0.2c0.1,1.2,0.2,2.4,0.2,3.6L188.7,74.5z M188.3,68.6
		c-0.1-1.2-0.2-2.4-0.4-3.5l2.4-0.3c0.1,1.2,0.3,2.4,0.4,3.6L188.3,68.6z M187.6,62.7c-0.2-1.2-0.4-2.3-0.6-3.5l2.3-0.4
		c0.2,1.2,0.4,2.4,0.6,3.6L187.6,62.7z M186.6,56.9c-0.3-1.2-0.5-2.3-0.9-3.4l2.3-0.6c0.3,1.1,0.6,2.3,0.9,3.5L186.6,56.9z
		 M185.1,51.3c-0.4-1.1-0.8-2.2-1.2-3.3l2.2-0.9c0.5,1.1,0.9,2.2,1.3,3.4L185.1,51.3z M182.9,45.9c-0.5-1.1-1.1-2.1-1.7-3l2-1.3
		c0.6,1,1.2,2.1,1.8,3.2L182.9,45.9z M180,41c-0.7-0.9-1.4-1.8-2.2-2.7l1.8-1.6c0.8,0.9,1.6,1.9,2.4,2.9L180,41z M176.2,36.7
		c-0.8-0.8-1.7-1.5-2.7-2.1l1.4-2c1,0.7,2,1.5,2.9,2.3L176.2,36.7z M171.6,33.4c-1-0.6-2-1.1-3.1-1.5l0.9-2.2c1.2,0.5,2.3,1,3.3,1.6
		L171.6,33.4z M166.4,31c-1.1-0.4-2.2-0.7-3.3-0.9l0.5-2.3c1.2,0.3,2.4,0.6,3.6,1L166.4,31z"/>
	<path class="st5" d="M77.9,102.3h-2.4v-1.7h2.4V102.3z M77.9,98.3h-2.4v-3.6h2.4V98.3z M77.9,92.3h-2.4v-3.6h2.4V92.3z M77.9,86.4
		h-2.4c0-1.2,0-2.4,0-3.6h2.4C77.9,84,77.9,85.2,77.9,86.4z M78,80.4h-2.4c0-1.2,0.1-2.4,0.1-3.6l2.4,0.1C78,78,78,79.2,78,80.4z
		 M78.2,74.5l-2.4-0.1c0.1-1.2,0.1-2.4,0.2-3.6l2.4,0.2C78.3,72.1,78.2,73.3,78.2,74.5z M78.5,68.6l-2.4-0.2
		c0.1-1.2,0.2-2.4,0.4-3.6l2.4,0.3C78.8,66.2,78.6,67.4,78.5,68.6z M79.2,62.7l-2.4-0.3c0.2-1.2,0.4-2.4,0.6-3.6l2.3,0.4
		C79.6,60.4,79.4,61.5,79.2,62.7z M80.2,56.9l-2.3-0.5c0.3-1.2,0.6-2.4,0.9-3.5l2.3,0.6C80.8,54.6,80.5,55.8,80.2,56.9z M81.8,51.3
		l-2.3-0.7c0.4-1.2,0.8-2.3,1.3-3.4L83,48C82.6,49.1,82.2,50.2,81.8,51.3z M83.9,45.9l-2.1-1c0.5-1.1,1.1-2.2,1.8-3.2l2,1.3
		C85,43.8,84.5,44.8,83.9,45.9z M86.9,41L85,39.6c0.7-1,1.5-2,2.4-2.9l1.8,1.6C88.3,39.1,87.6,40,86.9,41z M90.7,36.7l-1.6-1.8
		c0.9-0.8,1.9-1.6,2.9-2.3l1.4,2C92.4,35.2,91.5,35.9,90.7,36.7z M95.3,33.4l-1.2-2.1c1.1-0.6,2.2-1.2,3.3-1.6l0.9,2.2
		C97.3,32.3,96.2,32.8,95.3,33.4z M100.5,31l-0.8-2.3c1.1-0.4,2.3-0.7,3.6-1l0.5,2.3C102.7,30.4,101.5,30.7,100.5,31z"/>
	<path class="st6" d="M81.3,105.7c0,0,111.8,0.3,111.8,111.5V106.6C193.1,106.6,140.8,82.2,81.3,105.7z"/>
	<path class="st7" d="M70.9,197.1c-0.5,0-1-0.2-1.4-0.6c-0.8-0.8-0.8-2,0-2.8c14.4-14.6,32.8-17.7,45.7-17.7c1.1,0,2,0.9,2,2
		s-0.9,2-2,2c-12.1,0-29.4,2.9-42.8,16.5C71.9,196.9,71.4,197.1,70.9,197.1z"/>
	<path class="st3" d="M211,117.6c-9.8-12.1-25.4-19.9-46.6-23.3c-22.5-3.5-64.6-6.8-93.5,10.7c-5.2,3.1-9.9,7.3-14.4,12.7
		c-1,1.2-1,2.8,0,4c0.6,0.7,1.5,1.1,2.4,1.1c0.5,0,1.1-0.1,1.6-0.4c0.2-0.1,16.9-9.7,43.2-14.4c24.3-4.4,61.9-5.4,103.6,14.4
		c1.3,0.6,2.9,0.3,3.8-0.9C211.9,120.3,211.9,118.7,211,117.6z"/>
	<g>
		<g>
			<path class="st7" d="M70.4,199.9c-0.4,0.8-3.1,3.3-3.5,3.6v-0.1c-0.1-0.6-0.4-4.3,0-5.2s1.6-1.4,2.5-0.9
				C70.4,197.9,70.8,199,70.4,199.9z M64.7,200.4c-0.1,0-0.1,0-0.2,0l-2.3-2.9c0.8-0.5,1.6-0.8,1.9-0.9c1.1-0.1,2,0.6,2.1,1.7
				C66.4,199.4,65.7,200.3,64.7,200.4z"/>
		</g>
		<g>
			<path class="st7" d="M60,204.3c1-0.2,1.7-1.2,1.5-2.2s-1.2-1.8-2.2-1.6c-0.5,0.1-1.7,0.8-2.7,1.5s-1.8,1.4-1.8,1.4
				s1.1,0.2,2.2,0.5C58.2,204.1,59.5,204.4,60,204.3z M59.5,199.3c0,0,1.4-1,2.7-1.8l2.3,2.9c-0.6,0-1.9-0.3-3-0.6
				C60.5,199.5,59.5,199.3,59.5,199.3z M61.2,207.2c-0.3,0.9-2.7,3.6-3,4l0,0c-0.2-0.6-0.8-4.1-0.6-5.1c0.3-1,1.3-1.6,2.4-1.2
				C61,205.2,61.5,206.3,61.2,207.2z M65.7,203.5c-0.2,0.5-1,1.4-1.8,2.3c-0.8,0.8-1.5,1.5-1.5,1.5s-0.2-1-0.3-2.2s-0.2-2.5,0-3
				c0.3-1,1.5-1.5,2.4-1.1C65.6,201.4,66.1,202.5,65.7,203.5z M55.6,208.4c-0.1,0-0.1,0-0.2,0l-2.6-2.6c0.7-0.6,1.5-1,1.9-1.1
				c1-0.3,2.1,0.4,2.3,1.4C57.3,207.2,56.6,208.1,55.6,208.4z"/>
		</g>
		<g>
			<path class="st7" d="M51.5,212.8c1-0.4,1.5-1.4,1.2-2.4s-1.4-1.6-2.4-1.3s-4.1,3.6-4.1,3.6s1.1,0.1,2.3,0.2S51,213,51.5,212.8z
				 M50.4,207.9c0,0,1.3-1.2,2.5-2.1l2.6,2.6c-0.6,0.1-1.9-0.1-3-0.2C51.3,208.1,50.4,207.9,50.4,207.9z M53.1,215.6
				c-0.1,0.5-0.6,1.4-1.2,2.3c-0.5,0.9-1.1,1.8-1.2,2h-0.1c-0.2-0.5-1.5-4-1.3-5s1.2-1.7,2.2-1.5C52.6,213.6,53.3,214.6,53.1,215.6z
				 M57,211.3c-0.1,0.5-0.8,1.5-1.5,2.4s-1.3,1.7-1.3,1.7s-0.3-1-0.6-2.2s-0.5-2.4-0.3-3c0.2-1,1.3-1.6,2.3-1.4
				C56.6,209.2,57.2,210.3,57,211.3z M47.7,217.5c0,0-0.1,0-0.2,0l-3-2.2c0.7-0.7,1.3-1.2,1.7-1.4c1-0.4,2.1,0.1,2.5,1.1
				C49.1,216,48.7,217.1,47.7,217.5z"/>
		</g>
		<g>
			<path class="st7" d="M44.3,222.5c0.9-0.5,1.3-1.6,0.8-2.5c-0.5-1-1.6-1.4-2.6-0.9c-0.5,0.2-1.4,1.3-2.2,2.2
				c-0.7,1-1.3,1.9-1.3,1.9s1.1-0.1,2.3-0.2C42.5,222.9,43.8,222.7,44.3,222.5z M42.4,217.8c0,0,0.3-0.3,0.7-0.8s1-1.1,1.5-1.6
				l3,2.2c-0.6,0.2-1.9,0.2-3,0.2C43.4,217.8,42.4,217.8,42.4,217.8z M46.3,225c0,1-1.5,4.2-1.7,4.6h-0.1c-0.3-0.5-2-3.7-2-4.7
				c0-1.1,0.8-1.9,1.9-1.8C45.5,223.1,46.3,224,46.3,225z M49.5,220.2c-0.1,0.5-0.6,1.6-1.1,2.6s-1,1.9-1,1.9s-0.5-0.9-0.9-2.1
				c-0.4-1.1-0.8-2.4-0.8-2.9c0-1.1,1-1.8,2.1-1.7C48.8,218.2,49.6,219.2,49.5,220.2z"/>
		</g>
	</g>
	<path class="st6" d="M212.4,117.5c-2.4-3-5.3-5.8-8.5-8.3V89.5c0-19.1-2.3-36.2-15.5-47.6c-8.4-12.2-24.2-12.9-51-20.6
		c-0.7-0.2-1.6-0.3-2.5-0.3c0.3,18.5,0.4,56.9,0.3,84.2c21.1,0.1,46.4,4.1,73.5,17c1.3,0.6,2.9,0.3,3.8-0.9
		C213.4,120.2,213.3,118.6,212.4,117.5z"/>
</g>
<g>
	<path class="st8" d="M324.7,189.1c-4.2,1.4-12.2,3.4-20.2,3.4c-11.1,0-19.1-2.8-24.7-8.2c-5.6-5.2-8.6-13.1-8.5-22
		c0.1-20.2,14.8-31.7,34.6-31.7c7.8,0,13.9,1.5,16.8,3l-2.9,11c-3.3-1.4-7.5-2.6-14.1-2.6c-11.4,0-20.1,6.5-20.1,19.6
		c0,12.5,7.8,19.9,19.1,19.9c3.1,0,5.7-0.4,6.8-0.9v-12.7h-9.4v-10.7h22.6V189.1z"/>
	<path class="st8" d="M339.7,128h13.7v63.9h-13.7V128z"/>
	<path class="st8" d="M410.4,177.8c0,5.8,0.2,10.4,0.4,14.1h-11.9l-0.6-6.2H398c-1.7,2.7-5.9,7.2-13.8,7.2
		c-8.9,0-15.5-5.6-15.5-19.2v-25.8h13.8v23.7c0,6.4,2.1,10.3,6.8,10.3c3.8,0,5.9-2.6,6.8-4.8c0.4-0.8,0.5-1.9,0.5-3v-26.2h13.8
		V177.8z"/>
	<path class="st8" d="M425.8,179.9c2.5,1.5,7.7,3.3,11.8,3.3c4.1,0,5.8-1.4,5.8-3.7s-1.3-3.3-6.5-5c-9.1-3.1-12.6-8-12.5-13.2
		c0-8.2,7-14.4,17.9-14.4c5.1,0,9.7,1.2,12.4,2.5l-2.4,9.5c-2-1.1-5.8-2.5-9.5-2.5c-3.3,0-5.2,1.4-5.2,3.6c0,2.1,1.7,3.1,7.1,5
		c8.4,2.9,11.9,7.1,12,13.6c0,8.2-6.5,14.2-19.1,14.2c-5.8,0-10.9-1.3-14.2-3.1L425.8,179.9z"/>
	<path class="st8" d="M484.8,135.3v12.6h9.8V158h-9.8v15.9c0,5.3,1.3,7.7,5.4,7.7c1.7,0,3.1-0.2,4-0.4l0.1,10.3
		c-1.8,0.7-5,1.2-8.9,1.2c-4.4,0-8.1-1.5-10.3-3.8c-2.5-2.6-3.8-6.8-3.8-13v-18h-5.8v-10.1h5.8v-9.5L484.8,135.3z"/>
	<path class="st8" d="M517.1,174.3c0.5,5.7,6,8.4,12.4,8.4c4.7,0,8.5-0.6,12.1-1.8l1.8,9.3c-4.5,1.8-10,2.7-15.9,2.7
		c-14.9,0-23.5-8.6-23.5-22.4c0-11.2,6.9-23.5,22.2-23.5c14.2,0,19.6,11.1,19.6,22c0,2.3-0.3,4.4-0.5,5.4H517.1z M533.2,164.9
		c0-3.3-1.4-8.9-7.7-8.9c-5.8,0-8.1,5.2-8.5,8.9H533.2z"/>
	<path class="st8" d="M558.6,162.4c0-6.5-0.2-10.7-0.4-14.5H570l0.5,8.1h0.4c2.2-6.4,7.6-9.1,11.9-9.1c1.3,0,1.9,0,2.9,0.2V160
		c-1-0.2-2.2-0.4-3.7-0.4c-5,0-8.5,2.7-9.4,6.9c-0.2,0.9-0.3,2-0.3,3.1v22.3h-13.7V162.4z"/>
	<path class="st8" d="M597.7,131.2h37.1v11.2h-23.3v13.9h21.8v11.2h-21.8v24.4h-13.8V131.2z"/>
	<path class="st8" d="M650.1,177.8c3.7,1.9,9.4,3.8,15.2,3.8c6.3,0,9.6-2.6,9.6-6.6c0-3.8-2.9-5.9-10.2-8.5
		c-10.1-3.5-16.6-9.1-16.6-17.9c0-10.3,8.6-18.3,22.9-18.3c6.8,0,11.9,1.4,15.5,3.1l-3.1,11.1c-2.4-1.2-6.8-2.9-12.7-2.9
		s-8.8,2.7-8.8,5.8c0,3.9,3.4,5.6,11.2,8.5c10.7,4,15.8,9.5,15.8,18.1c0,10.2-7.8,18.8-24.5,18.8c-6.9,0-13.8-1.8-17.2-3.7
		L650.1,177.8z"/>
</g>
</svg>
